<?xml version="1.0" encoding="utf-8"?>
<!-- Generator: Adobe Illustrator 19.0.0, SVG Export Plug-In . SVG Version: 6.00 Build 0)  -->
<svg version="1.1"
	 id="svg2" xmlns:inkscape="http://www.inkscape.org/namespaces/inkscape" xmlns:sodipodi="http://sodipodi.sourceforge.net/DTD/sodipodi-0.dtd" xmlns:cc="http://creativecommons.org/ns#" xmlns:dc="http://purl.org/dc/elements/1.1/" xmlns:rdf="http://www.w3.org/1999/02/22-rdf-syntax-ns#" xmlns:svg="http://www.w3.org/2000/svg" sodipodi:docname="2000_Summer_Olympics_logo.svg" inkscape:version="0.48.4 r9939"
	 xmlns="http://www.w3.org/2000/svg" xmlns:xlink="http://www.w3.org/1999/xlink" x="0px" y="0px" viewBox="-384.1 397.3 425 534" width="282.113478907" height="354.467288792"
	 style="enable-background:new -384.1 397.3 425 534;" xml:space="preserve">
<style type="text/css">
	.st0{fill:#B79542;}
	.st1{fill:#2F1B72;}
	.st2{fill:#FDFCFB;}
	.st3{fill:#D9342D;}
	.st4{fill:#FFFFFF;}
	.st5{fill:#FFFDFD;}
</style>
<g>
	<path id="path3204" inkscape:connector-curvature="0" class="st0" d="M-333,398.2H-6.3c0,127.9,0,255.9,0,383.8
		c0.5,11.4-3.2,23.1-10.7,31.8c-9.1,11.3-23.5,18.1-38,17.8c-25.4,0.2-50.9,0-76.3,0.1c-14.2,0.5-27.8,8.9-35.1,21.1
		c-1.6,3.2-2.7,6.6-4.2,9.8c-3.5-12.2-12.2-22.9-24.1-27.7c-7.6-3.4-16.2-3.3-24.3-3.2c-22.3,0-44.5,0-66.9,0
		c-15.7,0.4-31-8.3-39.4-21.4c-5.4-8-8.1-17.7-7.7-27.3c-0.1-98.7,0-197.4,0-296.2C-333,457.2-333.2,427.7-333,398.2z"/>
	<path id="path3206" inkscape:connector-curvature="0" class="st1" d="M-324,405.2c67.6-0.1,135.3,0,203,0
		c35.2,0.1,70.3-0.2,105.6,0.1c-0.1,66.2-0.1,132.3,0,198.6c-24.1,0.3-48.3,0.1-72.5,0.2c-78.7-0.1-157.3,0.2-236.1-0.1
		C-324,537.6-324,471.4-324,405.2L-324,405.2z"/>
	<path id="path3212" inkscape:connector-curvature="0" class="st1" d="M-144,432.7c4.3,0.6,8.5,1.6,12.6,3c-1.7,0.3-3.5,0.8-5.1,1.6
		c0,0.7,0,2,0,2.6c1.9,1.5,3.6,3.3,5.5,4.9c1.7,0.3,3.6,0.2,5.4,0.3c-0.3-1.5,2-3,1.9-0.8c0.1,1.4,0.1,2.8-0.1,4.1
		c-1.6,2.2-4.7,1.8-7,1.9c-2.4-1.7-5.2-3-7.3-5.4C-141.5,441.6-141,436.3-144,432.7z"/>
	<path id="path3214" inkscape:connector-curvature="0" class="st1" d="M-128.9,436.5c2.4,0.7,5.2,0.9,7,2.8
		C-124.3,438.7-126.7,437.8-128.9,436.5z"/>
	<path id="path3216" inkscape:connector-curvature="0" class="st1" d="M-122.2,438.6c3.7,1.2,7.3,2.9,10.9,4.3
		c-3.1,3.6-4.8,8-6.9,12.2c0-3.4,0-6.7,0-10.1C-119.6,442.8-120.8,440.7-122.2,438.6z"/>
	<path id="path3218" inkscape:connector-curvature="0" class="st1" d="M-244.2,457.1c-0.8-2.7,3.1-3.2,4.7-4.7c0.6,0.7,1.3,1.3,2,2
		c-0.3-0.1-0.9-0.3-1.2-0.5C-239.6,455.9-241.8,458-244.2,457.1z"/>
	<path id="path3220" inkscape:connector-curvature="0" class="st1" d="M-250.2,459.5c4.8,3.3,10.3,0.3,14.8-2c1,1.8,2.1,3.6,3.1,5.4
		c-2.4,0.1-5,0.2-7-1.6c-3.8-0.7-8.2,0-11.4,2.4c-1.3,1.2-3.2,1-4.9,1.3C-253.9,463.2-252.1,461.4-250.2,459.5z"/>
	<path id="path3226" inkscape:connector-curvature="0" class="st1" d="M-78.5,486.3c2.1,1,4.2,1.8,6.2,3c1,1.6,1.8,3.5,2.4,5.3
		c0.8,2.2-1,4.1-2.7,4.9c2.2-3.4-0.7-6.5-2.2-9.6c-1.2,0.1-2.4,0.2-3.6,0.2C-78.4,488.9-78.4,487.6-78.5,486.3L-78.5,486.3z"/>
	<path id="path3228" inkscape:connector-curvature="0" class="st2" d="M-217.6,495.4c1.8-1.2,3.6-2.4,5.5-3.7
		c6.1,6.1,12.1,12.2,18.1,18.3c-1.2,1.8-2.4,3.6-3.6,5.5C-204.3,508.8-211.1,502.2-217.6,495.4z"/>
	<path id="path3230" inkscape:connector-curvature="0" class="st2" d="M-127.5,491.9c1.3,1.2,2.6,2.3,3.7,3.6
		c-6.3,6.9-13.3,13.3-19.8,20.1c-1.3-1.8-2.5-3.7-3.7-5.7C-140.6,503.9-134,497.9-127.5,491.9z"/>
	<path id="path3232" inkscape:connector-curvature="0" class="st1" d="M-289.4,528.9c2.1-0.7,0.7,2.4-0.3,0.7L-289.4,528.9z"/>
	<path id="path3234" inkscape:connector-curvature="0" class="st2" d="M-233.9,535.3c9.6,0,19.4,0,29-0.1c0.1,1.8,0.1,3.6,0.2,5.5
		c-9.7,0.2-19.4-0.1-29.2,0.1C-233.8,538.9-233.8,537.1-233.9,535.3z"/>
	<path id="path3236" inkscape:connector-curvature="0" class="st2" d="M-134.8,535.3c9.2-0.1,18.3-0.1,27.5,0c0,1.8,0,3.6,0,5.5
		c-9.2,0-18.3,0-27.5,0C-134.8,538.9-134.8,537.1-134.8,535.3L-134.8,535.3z"/>
	<path id="path3238" inkscape:connector-curvature="0" class="st2" d="M-197.8,560.4c1.2,1.3,2.5,2.5,3.8,3.8
		c-6.2,6.5-12.1,13.3-18.1,19.9c-1.8-1.2-3.6-2.4-5.6-3.6C-211.2,573.7-204.2,567.3-197.8,560.4z"/>
	<path id="path3240" inkscape:connector-curvature="0" class="st2" d="M-147.3,564.1c1.2-1.2,2.5-2.4,3.7-3.6
		c6.7,6.5,13.2,13.3,19.9,19.8c-1.2,1.4-2.4,2.7-3.7,4C-134,577.5-140.7,570.8-147.3,564.1z"/>
	<path id="path3242" inkscape:connector-curvature="0" class="st2" d="M-172.7,580.6c1.9-0.1,3.8-0.1,5.7-0.1c0,6.7,0,13.4,0,20
		c-1.9,0-3.8,0-5.6-0.1C-172.6,593.8-172.6,587.2-172.7,580.6L-172.7,580.6z"/>
	<path id="path3244" inkscape:connector-curvature="0" class="st1" d="M-324,611.1c48.9-0.1,97.7,0,146.6,0c1.1,0.2,3.6-0.5,3,1.5
		c0,74.7,0,149.3,0,224.1c-6.4-5.6-13.8-10.2-22.1-12.1c-8.4-2.4-17.3-1.6-26-1.7c-21.4,0-42.9,0-64.3,0
		c-10.3-0.1-20.7-4.4-27.6-12.2c-6.3-7.1-9.6-16.6-9.6-26C-324,726.7-324,668.9-324,611.1L-324,611.1z"/>
	<path id="path3246" inkscape:connector-curvature="0" class="st1" d="M-165.1,611.1c49.8,0,99.8-0.2,149.6,0.1
		c-0.1,57.8,0,115.7-0.1,173.5c0.1,10.2-4.3,20.5-11.8,27.4c-7.3,6.6-16.9,10.6-26.8,10.7c-26,0.1-52.1-0.1-78.1,0.1
		c-12.2,0.3-23.8,5.8-32.8,13.9C-165.1,761.5-165.2,686.3-165.1,611.1L-165.1,611.1z"/>
	<path id="path3248" inkscape:connector-curvature="0" class="st0" d="M-253.6,643.8c1.5,2.9,3.2,5.6,4,8.8
		c2.3,10.2,5.3,20.1,6.8,30.5c4-8.1,7.6-16.3,11.5-24.4c1.3-2.5,2.5-5.3,4.9-7.1c-0.2,4,0.1,8,1,11.9c1,9.5,0.8,18.9,0.9,28.4
		c4.2-4.5,8.1-9.3,11.4-14.4c1.3-1.8,3-3.2,4.7-4.6c-0.8,3.9-1.9,7.8-2.3,11.9c-2.3,13.6-6.1,27.2-12.1,39.7
		c-5.4,10.6-12.9,21.7-25.4,24.4c0.1,4.2,0,8.2,0.1,12.4c-3,0-6.1,0.1-9.1,0c0-4.3,0.1-8.4-0.2-12.7c-8.7-1.5-15.2-8.2-20-15.1
		c-7.9-12.2-12.3-26.1-15.5-40.2c-1.6-6.9-2-14.1-4.2-20.9c2,1.8,4.2,3.6,5.6,5.8c3,5.1,7,9.4,10.8,13.9c0.3-7.6-0.3-15.2,0.3-22.8
		c0.5-6.1,1.7-12.1,1.6-18.1c2.1,2.8,4,5.7,5.4,9c3.5,7.7,7.3,15.3,10.6,23C-260.5,669.8-256.9,656.8-253.6,643.8L-253.6,643.8z"/>
	<path id="path3250" inkscape:connector-curvature="0" class="st2" d="M-256.1,671.6c0.8-3.6,1.2-7.3,2.7-10.7
		c5.7,16.6,8.2,34.1,10,51.5c0.1,2.4,1,5.2-0.7,7.3c-3.4,5.2-6.2,10.8-9.5,16c-2.2-5.5-4.5-10.9-7.8-15.8c-1.8-2.4-0.9-5.6-0.6-8.2
		C-260.7,698.2-258.7,684.9-256.1,671.6L-256.1,671.6z"/>
	<path id="path3252" inkscape:connector-curvature="0" class="st2" d="M-275.2,665.9c3.5,8.3,7.4,16.5,10.5,24.8
		c0.3,7-1.3,14-1.9,21c-3.2-4.7-6.2-9.7-10.4-13.6C-277.2,687.4-277.1,676.5-275.2,665.9z"/>
	<path id="path3254" inkscape:connector-curvature="0" class="st2" d="M-236.9,681.6c2.3-5.1,4.1-10.5,6.9-15.3
		c1.6,10.4,1.6,20.9,1.5,31.4c-3.6,4.6-7.2,9.2-10.2,14.2c-0.3-6.2-1.6-12.2-1.9-18.4C-241.1,689.1-238.3,685.5-236.9,681.6z"/>
	<path id="path3256" inkscape:connector-curvature="0" class="st0" d="M-115.4,679.1c15.5-12.2,40-10.6,54,3.4
		c11.7,10.1,23.4,20.1,35.1,30.2c1.5,1.4,3.8,1.9,4.9,3.6c-5,2.6-8.8,7-13.3,10.4c-9.7,8.6-19.7,16.8-29.4,25.4
		c-7.7,6.6-18.2,9.5-28.3,9.1c-10.6,0.1-20.8-4.7-28.7-11.5c-9.1-7.8-18.3-15.6-27.4-23.5c-3.8-3.4-7.9-6.4-11.3-10.2
		c4.8-4.7,10.3-8.5,15.5-12.9C-134.8,694.9-124.9,687.3-115.4,679.1L-115.4,679.1z"/>
	<path id="path3258" inkscape:connector-curvature="0" class="st2" d="M-109.4,681.4c10.1-6.2,23.4-6.9,33.9-1.3
		c5.5,2.6,9.6,7.2,14.3,10.9c10.4,8.3,20.8,16.8,31.3,25c-10.7,9.6-21.7,18.6-32.6,27.9c-7.6,6.9-17.5,11.6-28,12
		c-11.2,0.2-21.9-5.1-29.9-12.7c-10.6-9-20.9-18.2-31.8-26.9c1.1-1.3,2.4-2.5,3.9-3.6c10.2-8.1,20.1-16.3,30.2-24.4
		C-115.3,686-112.7,683.3-109.4,681.4z"/>
	<path id="path3260" inkscape:connector-curvature="0" class="st1" d="M-96.5,685.8c16.3-3.2,33,9.6,35.7,25.6
		c3,16.6-10.7,33.5-27.3,35.2c-8.5,1-17.3-2.2-23.2-8.4c-8.3-8.4-11.2-21.6-7.2-32.7C-115,695.8-106.6,687.8-96.5,685.8L-96.5,685.8
		z"/>
	<path id="path3262" inkscape:connector-curvature="0" class="st2" d="M-215.9,689.2c-3,13.1-7,26.2-13.8,37.9
		c-4.9,8-11.5,16.5-21.4,17.7c0.7-1.2,1.3-2.3,1.7-3.6c3.2-10.8,9.5-20.2,15.5-29.6C-228.3,703.8-222.5,696.1-215.9,689.2
		L-215.9,689.2z"/>
	<path id="path3264" inkscape:connector-curvature="0" class="st2" d="M-289.4,689.7c10.7,12.7,20.8,26,29.1,40.5
		c2.8,4.6,4.3,9.8,6.3,14.8c-9.5-1.3-16.2-8.9-21-16.6C-282.1,716.6-286.4,703.2-289.4,689.7L-289.4,689.7z"/>
	<path id="path3270" inkscape:connector-curvature="0" class="st2" d="M-295.4,770.4L-295.4,770.4c3.4,0.3,6.9,0.9,9.9,2.4
		c2.7,1.6,6.2,1.7,8.9,0.3c5.2-2.7,11.7-3.7,17.2-1c2.5,1.4,5.5,2.2,8.3,1.8c2.5-0.1,4.6-1.7,6.9-2.5c3-1,5.9-1.1,8.6-0.9
		c1.1,0.1,2.2,0.3,3.5,0.7c1.8,0.7,2.3,1.3,4,1.9c1.6,0.5,3,0.5,4.2,0.5c2.8,0,4.9-0.7,6.7-1.4c3-1.1,5.5-2,6.9-2l0,0
		c0,1.7,0.1,3.6,0.1,5.4l0,0c-0.6-0.1-1.5-0.1-2.4,0.2c-1.1,0.3-1.9,0.6-2.3,0.8c-1.7,0.9-4.3,2-5.4,2.3c-2.9,1-5.6,0.3-6.6,0.1
		c-1.6-0.3-3-1-4.5-1.6c-1.3-0.6-2.3-1.1-3-1.6c-0.9-0.3-2.2-0.4-3.8-0.3c-1.6,0.1-2.9,0.6-3.7,1c-1.3,0.8-5.5,3.1-10,2.9
		c-2.7-0.2-6.2-1.4-6.8-1.6c-2.2-0.8-2.1-1.1-3.9-1.6c-1.5-0.4-4.9-1.4-7.2-0.1c-0.3,0.2-0.9,0.6-1.9,1.1c-0.2,0.1-1,0.5-1.8,0.9
		c-2,0.8-3.8,1-4.6,1.1c-1.4,0.2-3.4,0.2-6.9-0.3c-3.6-0.5-6.4-3.3-10.2-3l0,0C-295.4,774-295.4,772.1-295.4,770.4z"/>
	<path id="path3272" inkscape:connector-curvature="0" class="st0" d="M-381.4,815.8c1.9,0.6,4.9,1.5,8.4,2.4
		c6.9,1.8,9.9,2.3,17.4,3.9c12.5,2.8,17.5,4.4,19.5,5.2c0,0,7.1,2.5,12.4,7.3c1.8,1.6,2.7,3,3.1,3.8c0.9,1.5,1.2,2.9,1.5,3.8
		c0.1,0.8,0.4,3.2-1,5.8c-1.3,2.4-3.2,3.6-3.9,3.9c44.1,10.7,89.2,18.1,134.6,19.4c8.3-0.2,16.7,0.5,25,0.2
		c8.3-0.4,16.8,0.3,25.2-0.7c35.5-1.7,70.9-7,105.6-14.6c6.2-1.3,12.2-3.1,18.5-4.3c-4.3-2.5-6.9-8-4.9-12.7
		c0.8-1.6,1.6-4.9,13.5-10.7c18.8-9.4,34.4-10.8,38-11.1c3.6-0.3,6.5-0.3,8.5-0.3c0,0,0-0.1-0.1-0.1c-0.3,0-0.8,2.3-1.6,6.9
		c-1.5,4.3-4.5,11.5-10.9,18.6c-5.2,5.6-10.6,9-14.3,10.9c3.6,1.1,16.8,5.7,22.7,18.5c1.5,3,2.3,6.1,2.6,8.7
		c-10.8,2.3-21.6,5.3-32.6,8.9c-2.9,1-10.9,3-13.9,3.7c0,5.9,0,11.9,0.1,17.8c-4.2,0.6-8.2,1.7-12.3,2.6
		c-39.3,8.9-79.4,14.7-119.7,16.7c-20.6,0-41.1,0-61.6,0c-42.8-2.3-85.5-8.6-127.2-18.6c-1.3-0.3-2.7-0.5-4-0.7
		c-0.1-5.9-0.1-11.9,0-17.8c-9.5-3.8-20.8-7.5-33.5-10.1c-5.8-1.2-11.5-2.1-16.7-2.7c2.9-4.5,7-10.2,13-15.8
		c5.5-5.1,10.8-8.7,15.1-11.2c-4.5-2.4-14.4-8.6-20.8-20.7C-379.5,826.3-380.9,820.2-381.4,815.8z"/>
	<path id="path3274" inkscape:connector-curvature="0" class="st3" d="M-374.1,823.2c9.2,1,18.3,3,27.1,5.8
		c8.1,3.3,16.9,6,22.8,12.8c0.4,5.2-5.1,7.1-9.1,8.6c-0.3,12.4,0,24.7-0.1,37.2c-3.6-0.9-7-2.3-10.5-3.6c-9.9-3.6-20.1-6.7-30.7-6.9
		c2.1-3.5,6-8.7,12.2-13.5c6.7-5,16.9-9,16.5-9.8c-0.5-1-11.9-8.2-17.7-14.3C-369.4,833.4-372.5,827.2-374.1,823.2z"/>
	<path id="path3276" inkscape:connector-curvature="0" class="st3" d="M7.6,829c8.3-2.8,16.9-4.5,25.5-5.8c-2,4.5-5.4,10.8-11.1,17
		c-6.9,7.6-14.2,11.9-19.1,14.2c0,0,0.1,0,0.1,0.1c0,0,0,0-0.1,0c4.2,1,11.5,3.6,18.8,9.6c5.6,4.6,9,9.6,11,13.1
		c-7.1,0.2-13.9,2.4-20.8,3.9C5.6,883-1,885.7-7.8,887.8c-0.9-12.3,0.1-24.8-0.5-37.2c-3.3-1.6-7.6-4.3-6.9-8.6
		c2.4-2.3,5.8-5.2,10.4-7.9C0,831.4,4.3,829.9,7.6,829z"/>
	<path id="path3278" inkscape:connector-curvature="0" class="st3" d="M-327.6,867.9c0.1-3.6-0.3-7.2,0.4-10.8
		c38.3,9.6,77.5,15.7,116.8,18.5c26.3,1.6,52.7,1.7,78.9,0.1c39.7-2.4,78.9-9.1,117.5-18.4c0.4,16.8-0.2,33.6,0.3,50.4
		c-41.6,9-83.9,15.2-126.4,17.4c-9.6,0.5-19.1,0.3-28.7,0.8c-53.4,0-106.6-7.2-158.8-18.1C-327.8,894.5-327.6,881.2-327.6,867.9z"/>
	<path id="path3286" inkscape:connector-curvature="0" class="st3" d="M-269.6,897c2.8-1.6,5.4-3.6,8.7-3.9
		c0.1,4.1,0.1,8.1-0.1,12.2C-262.8,901.6-265.6,898.2-269.6,897z"/>
	<path id="path3288" inkscape:connector-curvature="0" class="st3" d="M-145.3,903.9c2.7-2.1,5.4-4.1,8.5-5.3
		c0.5,3.9,0.3,7.9,0.3,11.9C-138.8,907.6-142.1,905.8-145.3,903.9z"/>
	<path id="path3290" inkscape:connector-curvature="0" class="st3" d="M-204.8,902.5c2.8-1.1,5.6-3.8,8.7-3.1
		c0.2,3.6-0.1,7.4,0.2,11C-198.7,907.7-201.8,905-204.8,902.5z"/>
	<path id="path3294" inkscape:connector-curvature="0" class="st3" d="M-173.4,911.2c1.6-1,3.1-2.1,4.6-3.2c0,2.6,0,5.2-0.1,7.8
		C-170.2,914-171.5,912.3-173.4,911.2L-173.4,911.2z"/>
	<path id="path3224" inkscape:connector-curvature="0" class="st0" d="M-183.4,483.6c2.3-2.3,4.7-4.8,7.1-7.4
		c4.7-5,8.9-10.1,12.6-14.8c0,2.1,0,4.9,0.1,8.5c0.1,4.4,0.2,6.6,0.3,8.6c0.6,6.3,2.2,10.9,3,13.5c1,3.2,1.6,4.2,5.6,12.5
		c6.9,14.4,7.2,16.1,7.5,17.6c0.3,2.2,1.4,8.6-1.2,15.5c-1,2.6-3.5,6.5-8.6,14.2c-3.2,4.9-3.8,5.6-5,8c-1.4,2.8-3.3,6.9-3.4,12.5
		c-0.1,3,0.5,5.6,1,7.2c-4.3-1.9-7.7-4.1-10.2-5.9c-1.9-1.5-4.9-3.7-8.2-7.6c-3.3-4-4.9-7.6-5.9-9.7c-1-2.2-2.2-4.9-2.9-8.8
		c-0.5-3-0.5-5.4-0.5-6.2c0.1-2.7,0.5-4.6,1-6.9c1.5-6.9,2.3-10.2,2.3-11.5c0.4-4,0-7-0.6-12.2c-0.7-5.5-1.2-5.8-1.2-9.3
		c0-2.4,0-6,1.6-10.2C-187.2,488-185.2,485.4-183.4,483.6z"/>
	<path id="path3224_1_" inkscape:connector-curvature="0" class="st3" d="M-182.6,493c1.9-3,4.2-6.2,6.6-9.3c3-3.9,6-7.5,8.9-10.7
		c-0.6,2.4-1.4,6-0.9,10.4c0.3,2.3,0.8,3.9,1.7,7.2c1.6,5.8,3.4,10.1,3.9,10.9c1.8,3.9,2.1,3.8,4.7,8.7c3.8,7.2,5.5,10.9,5.8,16
		c0.2,1.7,0.3,5.3-1.2,9.3c-0.6,1.7-1.1,2.1-6.4,10.8c-1.4,2.3-2.4,3.8-3.8,6c-2.4,4.2-3.6,6.2-4.5,8.7c-0.8,2.3-1.7,6-1.2,10.9
		c-3.5-2.8-5.9-5.5-7.7-7.6c-2.4-3-3.9-5.6-4.5-6.5c-1.1-1.8-2.3-4-3.3-7.2c-0.4-1.5-1.2-3.5-1.3-6.2c0-0.6-0.2-2.7,0.3-5.3
		c0.3-2.1,0.9-3.5,1.2-4.8c0.3-1.2,1.6-5.5,1.9-10c0.3-3.6-0.2-6.5-0.6-9.6c-0.4-3.3-0.8-3.8-1.2-7.2c-0.3-2.8-0.4-4.8-0.3-7.2
		C-184.4,498.7-183.9,496-182.6,493z"/>
	<path id="path3270_1_" inkscape:connector-curvature="0" class="st2" d="M-296,757.3L-296,757.3c3.4,0.3,6.8,0.9,9.9,2.4
		c2.7,1.5,6.1,1.8,8.9,0.3c5.3-2.7,11.7-3.8,17.1-0.9c2.6,1.3,5.4,2.1,8.4,1.8c2.6-0.2,4.6-1.8,6.9-2.5c3-0.9,6-1.2,8.6-0.9
		c1.2,0.2,2.3,0.3,3.4,0.8c1.8,0.6,2.3,1.3,3.9,1.9c1.6,0.6,2.8,0.6,4.2,0.6c2.7,0,4.9-0.8,6.8-1.5c2.9-1.1,5.6-2,7.1-2l0,0
		c0,1.8,0,3.6,0.1,5.4l0,0c-0.6,0-1.5,0-2.4,0.2c-1.1,0.3-1.9,0.6-2.3,0.8c-1.8,0.9-4.2,1.9-5.4,2.4c-2.8,1.1-5.5,0.3-6.6,0.2
		c-1.7-0.3-2.9-0.9-4.5-1.7c-1.4-0.6-2.3-1.2-3-1.5c-0.9-0.3-2.1-0.4-3.8-0.3c-1.7,0.2-2.9,0.6-3.8,0.9c-1.2,0.8-5.6,3.1-10.1,2.8
		c-2.7-0.2-6.2-1.3-6.7-1.7c-2.1-0.8-2.1-1-3.9-1.7c-1.5-0.4-4.9-1.3-7.2-0.1c-0.3,0.1-0.9,0.6-2,1c-0.1,0-1,0.5-1.8,0.9
		c-2,0.8-3.9,1-4.6,1.2c-1.4,0.2-3.3,0.2-7.1-0.3c-3.6-0.6-6.4-3.3-10.2-3l0,0C-296,760.9-296,759.1-296,757.3z"/>
	<g>
		<path class="st4" d="M-69.9,704.2h-6v33.6L-77,737l0,0c-1.5-5.5-4-9.6-7.8-12c-0.9,1.3-2,2.4-3.5,3.2s-3.1,1.2-5.1,1.2
			c-1.1,0-2.1-0.3-3.3-0.8c-1.1-0.4-2.3-1-3.3-1.9c-1-0.9-2.1-1.8-3.2-3c-1-1.2-1.9-2.4-2.8-3.9c-1-1.8-1.8-3.8-2.5-6.2
			c-0.6-2.4-1.1-4.9-1.5-7.6l1.9,0.8c0.6,2.5,1.2,4.9,2.1,7.2c0.9,2.1,1.9,3.9,3.2,5.6c1.2,1.5,2.6,2.7,4.1,3.6s3,1.3,4.5,1.3
			c3.8,0,6.1-1,7.5-3.3c0.9-1.5,1.2-3.2,1.2-4.7c0-0.6,0-1.1-0.2-1.7c-0.3-0.9-0.6-1.8-1.2-2.5c-0.4-0.8-1.1-1.4-1.3-1.7
			c-0.8-0.6-1.4-0.9-2-1.1c-0.6-0.1-1.2,0-1.9,0.3c0.8,0.9,1.1,1.8,1.1,2.5s-0.2,1.4-0.6,2c-0.4,0.6-0.9,1.2-1.6,1.7
			c-1.1,0.9-2.4,1.2-3.8,0.9c-1.4-0.3-2.6-0.9-3.3-2.1c-0.4-0.8-0.6-1.5-0.6-2.4c0-0.9,0.3-1.8,0.8-2.5s1-1.5,1.7-2
			c1.8-1.2,3.6-1.9,5.4-1.9c0.9,0,1.7,0.2,2.6,0.4c1.2,0.5,2.4,1.1,3.4,2c1.1,0.9,2.1,1.9,2.9,3.2c1.1,1.8,1.5,3.8,1.5,6
			c0,1.6-0.3,3.3-0.8,4.9l4.2,3.8v-21.9h-31.5l-3.2-3.1h40.7L-69.9,704.2z"/>
	</g>
	<g>
		<g>
			<path class="st5" d="M-293.8,879.8c-1.5,6.4-2.3,9.6-3.9,15.9c0.3,1.2,1,1.8,2,2.1c1.5,0.3,3.1-0.1,5.1-1.5
				c1.8-1.2,2.8-2.7,3.4-4.2c-0.3,0-0.4,0-0.9-0.1c-0.3-0.1-0.8-0.3-1-0.4s-0.6-0.5-0.9-0.8c-0.3-0.3-0.5-0.6-0.5-1.1
				c-0.1-0.3-0.1-0.8,0-1.2c0.1-0.9,0.6-1.5,1.4-2c0.8-0.4,1.5-0.6,2.4-0.4c1.4,0.3,2.4,1.2,3,2.7c0.1,0.6,0.3,1.2,0.5,2
				c0,0.8,0,1.4-0.1,2.1c-0.5,2.3-2,4.4-4.5,6c-2.6,1.8-5.1,2.5-7.5,1.9c-1.5-0.3-2.7-1-3.5-2.3c-0.8-1.2-1-2.5-0.9-4.2
				c1.5-6.1,2.3-9.1,3.8-15.3c-1.4-0.3-2.1-0.4-3.6-0.9c-0.8-1.2-1-1.6-1.6-2.9c8.4,2.1,12.6,3.1,21.1,5c0.8,1.2,1.2,1.6,2,2.9
				C-284.5,882-287.7,881.3-293.8,879.8z"/>
			<path class="st5" d="M-273.6,883.9c-1.9,9.6-2.8,14.4-4.8,24.1c-0.8-1-1.2-1.6-2-2.9c1.4-6.9,2.1-10.2,3.5-17.1
				c0.1-0.8,0.1-1.4,0-1.9c-0.1-0.6-0.5-1.2-0.9-1.6c-0.5-0.5-0.9-0.9-1.5-1.4c-0.6-0.3-1.2-0.6-2-0.8c-0.8-1.2-1.2-1.6-1.9-2.9
				c0.3,0.1,0.8,0.1,1.4,0.2c1.6,0.3,1.6,0.3,1.9,0.3c1.4,0.4,2.3,1.4,2.6,1.7c1.2,1.4,1.3,2.9,1.4,3.4c0.1-0.4,0.1-1,0.3-1.8
				c0.1-0.8,0.1-1.5,0.3-2.4s0.3-1.6,0.3-2.4c0.1-0.8,0.1-1.2,0.3-1.6c0.3,0.3,0.5,0.4,0.8,0.9c0,0.6,0,1.3,0.1,2.2
				c0.1,0.6,0.3,1.2,0.5,1.6c0.2,0,0.3,0.1,0.5,0.1c0.2,0,0.4,0.1,0.6,0.1c0.3,0.5,0.6,1,0.9,1.6c0.2,0.4,0.4,0.8,0.6,1.2
				c-0.5-0.2-1.1-0.3-1.7-0.4C-272.8,884.1-273.2,884-273.6,883.9z"/>
			<path class="st5" d="M-252.9,888.1c-0.2,0.8-0.2,1-0.3,1.6c2.9,0.4,5,1.9,6.3,4.4c1.3,2.3,1.9,4.5,1.5,6.9
				c-0.2,0.6-0.3,1-0.6,1.6c-0.3,0.4-0.6,0.9-1.1,1.4c-0.4,0.5-0.9,0.6-1.3,0.8c-0.6,0.1-1.1,0.1-1.7,0.1c-0.4,0-0.8-0.1-1.2-0.5
				c-0.3-0.1-0.8-0.4-0.9-0.8c-0.3-0.3-0.5-0.6-0.6-1c-0.1-0.5-0.1-0.8-0.1-1.2c0.1-0.8,0.4-1.4,1-1.8c0.6-0.5,1.4-0.6,2.3-0.5
				c0.5,0,0.9,0.3,1.4,0.6c0.3,0.3,0.8,0.6,0.9,1.1c0.1-0.1,0.1-0.3,0.3-0.5c0.3-1.6-0.3-3.1-1.4-4.6s-2.9-2.5-5.4-2.9
				c-1.2,7.8-1.8,11.6-3,19.4c-0.1,0-0.3-0.1-0.4-0.3c-0.2-0.1-0.3-0.3-0.3-0.5c-0.4-1.5-0.9-2.9-1.5-4.2c-0.6-1.4-1.4-2.6-2.1-3.6
				c-1.9-2.6-4.2-4.1-6.9-5c-1-1.8-1.6-2.9-2.7-4.6c4.8-2.3,9.9-3.9,15.3-4.6c0.1-0.8,0.1-1.2,0.3-1.9c-6.3-1.1-9.5-1.5-15.6-2.9
				c-0.4-0.6-0.9-1.2-1.3-1.8c-0.2-0.3-0.4-0.7-0.7-1c5,1,10.1,2,15.4,2.9c5.1,0.8,10.1,1.6,14.9,2.2c0.9,1,1.4,1.6,2.3,2.7
				C-245.4,889.3-248,889-252.9,888.1z M-256.2,892.9c-1.5,0.3-3.2,0.8-4.8,1.2c-1.6,0.6-3.3,1.2-5.3,1.9c3.8,2.4,6.5,5.4,7.8,9.3
				c0,0,0,0,0.1,0C-257.4,900.4-257,898-256.2,892.9z"/>
			<path class="st5" d="M-235.3,890.2c-1.2,9.8-1.8,14.7-3,24.5c-0.9-1.1-1.4-1.6-2.1-2.7c0.9-6.9,1.4-10.4,2.3-17.3
				c0.1-0.8,0-1.4-0.1-1.9c-0.2-0.6-0.6-1.2-1.1-1.6c-0.3-0.3-0.8-0.8-1.6-1.2c-0.7-0.3-1.4-0.5-1.8-0.5c-0.1-0.5-0.2-1-0.3-1.5
				c-0.1-0.4-0.2-0.8-0.3-1.2c0.3,0,0.6,0,1.1,0.1c0.7,0.1,2.2,0.4,3.4,1.5c1.2,1.2,1.5,2.8,1.5,3.3c0-0.5,0.1-1.1,0.1-1.8
				s0.2-1.5,0.2-2.5c0-0.9,0.1-1.8,0.1-2.4c0-0.8,0.1-1.2,0.1-1.8c0.3,0.3,0.4,0.5,0.8,0.8c0,1.6,0.4,3,1.1,3.8
				c0.9,0.1,1.4,0.1,2.1,0.3c0.9,1,1.2,1.5,2.1,2.5C-232.6,890.5-233.5,890.4-235.3,890.2z"/>
			<path class="st5" d="M-190.5,889.1c-0.8-0.8-1.6-1.4-2.6-2.1c-0.9-0.8-1.9-1.4-3.1-2.1c-1.1-0.6-2.1-1.2-3.3-1.5
				c-1.2-0.3-2.3-0.6-3.6-0.6c-1.8-0.1-3.6,0.5-5.6,1.5c-2.1,1.2-3.4,2.6-3.6,4.2c0.3,0.9,0.4,1.4,0.8,2.3c0.2,0,0.4,0.1,0.6,0.1
				c0.3,0,0.6,0,0.8,0c0.6,0.2,1.5,0.6,2.4,1.4c0.5,0.4,0.9,0.9,1.1,1.3c-0.4,0-0.9,0-1.3-0.1c-1-0.1-2-0.1-2.9-0.2
				c-0.8,9.8-1.1,14.7-1.8,24.4c-0.9-1-1.5-1.5-2.4-2.5c0.8-8.9,1-13.4,1.8-22.2c-1.5-0.1-2.3-0.1-3.8-0.3c-0.9-1.1-1.3-1.5-2.1-2.6
				c2.6,0.3,3.9,0.3,6.4,0.6c-0.6-0.6-0.9-1-1.5-1.6c-0.6-0.6-0.9-1.4-0.8-1.9c0.1-2,1.4-3.6,3.8-5.1c2.3-1.4,4.4-2.1,6.3-2
				c4.9,0.3,9.6,3,14.1,7.8C-190.8,888.3-190.6,888.6-190.5,889.1z"/>
			<path class="st5" d="M-188.7,894.2c-0.3,9.9-0.4,14.9-0.9,24.8c-0.6-0.6-0.8-0.9-1.4-1.6c-0.1-0.3-0.1-0.5-0.3-0.8
				c-0.1-0.3-0.3-0.8-0.8-1.5c-0.3-0.8-0.9-1.5-1.5-2.3c-0.6-0.9-1.2-1.5-1.8-2.1c-2.1-2-4.8-3.1-8.4-3.8c-1.2-1.8-1.8-2.7-3-4.5
				c5.1-3,10.4-5.1,15.4-6.6c0-0.8,0-1.1,0-1.6c-6.6-0.3-10.1-0.5-16.6-0.9c-0.9-1.1-1.4-1.5-2.3-2.6c9.6,0.8,14.4,0.9,23.8,1.2
				c0.9,0.9,1.4,1.5,2.3,2.4C-185.7,894.4-186.8,894.4-188.7,894.2z M-191.3,899.8c-1.6,0.5-3.3,1.1-4.9,1.8s-3.4,1.6-5.3,2.5
				c4.4,2,7.7,4.8,9.8,8.6C-191.6,907.6-191.4,904.9-191.3,899.8z"/>
			<path class="st5" d="M-162.5,894.5c0.2,9.9,0.3,14.9,0.4,24.8c-1-0.9-1.6-1.4-2.7-2.4c0-6,0-9,0-15.1c0-1-0.6-2.3-1.6-3.6
				s-2.1-2.1-3.2-2.1c-0.6,0-1.2,0.1-1.8,0.6c-0.6,0.5-0.9,0.9-0.9,1.4c2.6,1.8,3.9,3.1,3.9,4.4c0,1.1-0.3,1.8-0.9,2.4
				c-0.6,0.6-1.5,1.2-2.4,1.4c-0.8,0-1.7-0.3-2.3-0.8c-0.8-0.4-1.2-1.2-1.5-2.1c-0.8,2-2.1,2.9-4.1,2.9c-0.9,0-1.7-0.3-2.3-1
				c-0.6-0.8-0.9-1.5-0.8-2.4c0-0.6,0.1-1.1,0.3-1.6c0.3-0.6,0.6-1.1,0.9-1.5c0.4-0.5,0.9-0.9,1.4-1.2c0.6-0.3,1.1-0.6,1.6-0.8
				c-1.2-1.9-2.6-3-4.1-3.1c-1.5,0-2.6,0-2.8,0c-0.9-0.9-1.4-1.5-2.4-2.4c2.1,0,3.2,0.1,5.3,0.1c1.2,0,2.4,0.5,3.6,1.5
				c1.1,0.9,1.8,2.1,2.1,3.5c1.5-3.1,3.6-4.8,6.2-4.8c0.9,0,2.1,0.8,3.4,2.4c1.4,1.5,2.3,2.9,2.6,3.8h0.1c-0.1-4.2-0.3-6.3-0.6-10.4
				c0.6,0.6,0.9,0.8,1.5,1.4c0.3,1.8,1.2,2.7,2.6,2.9c0.2,0.4,0.5,0.8,0.7,1.3c0.2,0.3,0.4,0.7,0.5,1
				C-160.6,894.5-161.5,894.5-162.5,894.5z M-162,922.9c-1-0.4-1.9-1.2-3-2.5c-0.9-1.4-1.8-2.3-2.5-2.7c-0.6-0.4-1.4-0.8-2.4-0.9
				s-1.9-0.3-3.1-0.4c-1.1-1.4-1.5-2-2.4-3.3c1.9-1.2,3.8-2.4,5.6-3.6c1.8-1,3.4-2.3,5.1-3.1c0.1,0.1,0.3,0.3,0.6,0.5
				c0.3,0.1,0.6,0.4,0.9,0.8c0.6,0.8,1.1,1.2,1.1,1.5C-162.2,914.6-162,917.5-162,922.9z M-164.7,910.1c-0.8,0.5-1.6,0.9-2.7,1.6
				c-1.1,0.6-2.4,1.4-3.8,2.3c1.2,0.3,2.4,0.8,3.4,1.4s2.1,1.6,3.2,2.7C-164.6,914.9-164.6,913.4-164.7,910.1z"/>
			<path class="st5" d="M-133.8,888.1c-0.8-0.6-1.7-1.2-2.7-1.8c-1-0.6-2.1-1.2-3.3-1.8c-1.1-0.6-2.3-0.9-3.5-1.2
				c-1.2-0.1-2.4-0.3-3.6-0.3c-1.8,0.1-3.6,0.8-5.4,2.1c-1.9,1.4-3.1,3-3.1,4.6c0.4,0.9,0.6,1.4,1.1,2.3c0.6,0,1.1,0,1.7,0
				c0.4,0,0.8,0,1.2,0c0.2,0.4,0.3,0.7,0.5,1.1c0.1,0.4,0.3,0.8,0.4,1.1c-0.2,0-0.4,0-0.6,0c-0.7,0-1.5,0-2.2,0
				c0.3,9.8,0.4,14.7,0.8,24.6c-1.1-0.9-1.7-1.4-2.7-2.3c-0.3-8.9-0.3-13.4-0.6-22.2c-1.5,0-2.3,0-3.8,0.1c-1.1-0.9-1.5-1.4-2.4-2.3
				c2.6,0,3.9,0,6.5-0.1c-0.8-0.6-1.1-0.9-1.8-1.5c-0.6-0.6-1.1-1.2-1.1-1.8c0-2,1.1-3.8,3.1-5.4c2-1.6,4.1-2.6,6-2.6
				c5-0.1,9.9,1.8,14.9,6.3C-134.1,887.3-134,887.6-133.8,888.1z"/>
			<path class="st5" d="M-131.4,893.2c0.8,9.9,1.1,14.9,1.8,24.6c-0.6-0.6-0.9-0.9-1.5-1.5c-0.2-0.3-0.3-0.5-0.4-0.8
				c-0.2-0.3-0.5-0.8-0.9-1.4s-1.1-1.4-1.8-2.1s-1.5-1.4-2.1-1.8c-2.3-1.6-5.1-2.7-8.7-2.9c-1.3-1.6-2.1-2.5-3.4-4.2
				c4.8-3.5,9.8-6.1,14.7-8.3c0-0.8,0-1.1-0.2-1.6c-2.2,0.2-4.4,0.3-6.6,0.4c-3.4,0.2-6.8,0.3-10.1,0.5c-0.3-0.3-0.7-0.6-1-0.9
				c-0.5-0.4-0.9-0.9-1.3-1.3c3.6-0.1,7.4-0.2,11.3-0.5c4-0.2,7.8-0.5,11.5-0.9c0.9,0.4,1.9,0.9,2.9,1.6c0.3,0.2,0.5,0.4,0.7,0.5
				C-128.4,892.9-129.5,893-131.4,893.2z M-133.4,898.9c-1.5,0.6-3.2,1.5-4.7,2.4c-1.6,0.9-3.3,2-4.9,3.1c4.5,1.5,8.1,4.1,10.5,7.5
				C-132.8,906.7-132.9,904-133.4,898.9z"/>
			<path class="st5" d="M-122.4,892.4c0.4,4.4,0.6,6.6,1.1,10.9c0.8-1,1.7-1.9,2.6-2.9c0.9-0.9,1.9-1.6,2.8-2.5
				c1-0.8,1.9-1.5,2.8-2.1s1.8-1.1,2.6-1.5c1.8,1,2.5,1.5,4.3,2.4c-0.9,2.3-1.5,4.2-1.8,6.3c-0.3,2-0.4,3.8-0.3,5.6
				c0.2,1.8,0.8,4,1.8,7c-0.8-0.3-1.1-0.3-1.8-0.6c-0.8-2.1-1.3-4-1.8-5.7c-0.4-1.6-0.8-3-0.9-4.2c-0.3-2.1-0.2-4,0.1-6.3
				c-2.1,1-3.9,2.5-5.5,4.4c-1.7,1.8-2.8,3.9-3.8,6.1c-1.5-1.2-2.3-1.8-3.8-3c-0.5-5.6-0.8-8.3-1.2-13.8c-1,0.1-1.5,0.1-2.5,0.1
				c-1.1-0.9-1.7-1.4-2.7-2.1c9.6-0.8,14.2-1.2,23.8-2.4c1,0.8,1.6,1.2,2.7,2.1C-111.2,891.2-114.9,891.7-122.4,892.4z"/>
			<path class="st5" d="M-95.7,889.3c-2.3,0.5-3.3,2.3-3.1,5c0.1,2.1,0.8,4.2,1.5,6.3c0.4,1.4,0.9,2.6,1.2,3.6
				c0.3,1.1,0.4,2,0.6,2.7c0.1,0.9,0,1.8-0.3,2.7s-0.8,2-1.4,2.7c-0.6,0.6-1.3,1.2-2.1,1.8s-1.7,1.1-2.4,1.4
				c-0.6-0.3-0.9-0.4-1.5-0.8c0.8-0.4,1.7-0.8,2.3-1.4c0.8-0.4,1.3-1,1.8-1.8c0.6-0.9,0.8-2.3,0.6-4.1c0-0.6-0.3-1.2-0.4-1.9
				c-0.3-0.8-0.6-1.6-1.1-2.7c-0.9-1.9-1.3-3.6-1.7-4.6c-0.4-2.9,0.3-5.9,2.7-8.5c-1.6,0.3-3.2,0.5-4.8,0.7
				c-0.7,0.1-1.5,0.2-2.2,0.3c-0.5-0.4-1-0.8-1.6-1.2c-0.5-0.3-0.9-0.6-1.3-0.9c2-0.3,4-0.6,6.2-0.9c1.6-0.2,3.2-0.3,4.7-0.5
				c0.6,0,1.6,0.1,2.7,0.7c0.6,0.3,1,0.7,1.3,1C-94.8,889.1-95.1,889.1-95.7,889.3z"/>
			<path class="st5" d="M-90.5,888.5c1.5,9.8,2.3,14.6,3.8,24.3c-1-0.8-1.6-1.2-2.8-2c-1.1-6.9-1.5-10.4-2.6-17.3
				c-0.1-0.8-0.3-1.4-0.8-1.9c-0.4-0.6-0.9-0.9-1.3-1.4c-0.6-0.3-1.2-0.6-1.8-0.8c-0.8-0.1-1.4-0.1-2.1,0c-1-0.8-1.6-1.2-2.7-2
				c1.1-0.1,1.7-0.1,2.7-0.4c1.5-0.1,2.7,0,3.6,0.4c0.9,0.5,1.6,1.5,2.4,2.9c0-0.4-0.1-1-0.3-1.8s-0.3-1.5-0.6-2.4
				c-0.1-0.9-0.3-1.6-0.4-2.4c-0.2-0.6-0.3-1.2-0.3-1.6c0.4,0.3,0.6,0.3,0.9,0.6c0.6,1.6,1.2,2.7,2.1,3.3c0.9-0.1,1.4-0.1,2.1-0.3
				c1,0.8,1.6,1.2,2.7,1.9C-87.8,888.1-88.7,888.2-90.5,888.5z"/>
			<path class="st5" d="M-65.3,883.7c1.9,9.8,3,14.6,4.9,24.3c-1.2-0.8-1.8-1.1-3-1.6c-1.1-5.3-1.5-8-2.6-13.2
				c-0.1-0.8-0.6-1.5-1.3-1.9c-0.8-0.5-1.5-0.6-2.4-0.5c-1.3,0.3-1.9,1.2-1.6,2.9c0,0.3,0.3,0.9,0.4,1.4c-0.3,0.1-0.6,0.3-0.9,0.6
				c-0.5-1.2-1.4-2.1-2.6-2.7c-1.2-0.6-2.6-0.8-3.9-0.6c-0.6,0.1-1.2,0.3-1.6,0.6c-0.4,0.3-0.9,0.8-1.4,1.2
				c-0.3,0.5-0.6,1.1-0.8,1.5c-0.1,0.6-0.1,1.2-0.1,1.8c0.3,1.9,1.6,2.9,4.2,2.7c-0.6-0.6-1.1-1.2-1.2-1.8c-0.2-0.6,0-1.4,0.6-2
				c0.5-0.6,1.1-1,1.8-1c2.3-0.3,3.6,0.8,4.1,2.9c0.1,0.9-0.2,1.6-0.6,2.4c-0.6,0.8-1.5,1.2-2.8,1.5c-1.1,0.1-2.1,0.1-3,0
				c-0.9-0.1-1.8-0.5-2.6-0.9c-0.8-0.5-1.3-1.1-1.8-1.8c-0.4-0.8-0.8-1.6-0.9-2.7c-0.3-1.6,0-3.1,0.6-4.6c0.8-1.6,2-2.7,3.6-2.9
				c2.1-0.3,4.1,0.3,6.1,2.1c-0.1-0.8,0.2-1.5,0.6-2.1c0.6-0.8,1.2-1.2,1.8-1.4c1.9-0.5,3.8,0.6,5.3,3c-0.5-2.6-0.8-3.8-1.2-6.3
				c-3.4,0.7-6.9,1.3-10.5,2c-2.9,0.5-5.8,1-8.6,1.5c-0.3-0.2-0.7-0.5-1.1-0.9c-0.4-0.4-0.7-0.8-0.9-1.2c6.1-0.8,10.4-1.6,13.2-2.1
				c1.1-0.2,5-1,10.9-2.2c0.1,0,0.9-0.2,1-0.2c0.5,0.3,0.9,0.6,1.4,0.9c0.5,0.3,0.9,0.6,1.4,0.9C-62.8,883.1-63.5,883.3-65.3,883.7z
				"/>
			<path class="st5" d="M-43.4,879c2.4,9.8,3.6,14.5,6,24.3c-0.8-0.3-2-1.2-3.6-2.9c-1.6-1.6-3.3-2.9-4.6-3.4
				c-2.3-0.9-4.8-1.1-7.8-0.6c-1.6-1.4-2.5-2-4.2-3.3c1-1.5,2.1-2.9,3.1-4.2c1-1.4,1.9-2.6,2.9-3.5c-0.3-0.3-1.1-0.4-2-0.6
				c-0.9-0.1-2.1-0.4-3.6-0.6c-3.4-0.1-6-1-7.5-2.7c8.9-1.8,13.2-2.9,22.1-5.1c1.2,0.6,1.8,1,3,1.6C-41,878.4-41.7,878.5-43.4,879z
				 M-51,902.1c-0.1-0.6,0-1.2,0.5-1.8s0.9-0.9,1.6-1c0.8-0.1,1.4,0,2,0.3c0.6,0.3,1,0.9,1.2,1.5c0.1,0.6,0,1.2-0.3,1.8
				c-0.5,0.6-0.9,0.9-1.6,1c-0.8,0.1-1.4,0-2-0.3C-50.6,903.3-50.9,902.8-51,902.1z M-45.6,879.4c-3.6,0.9-5.5,1.4-9.1,2.1
				c0.9,0.3,1.9,0.8,3.1,1.5c1.2,0.8,2.7,1.6,4.2,2.7c-0.8,1-1.5,2.3-2.3,3.4c-0.8,1.2-1.5,2.4-2.3,3.6c4.4,0.5,8,2,10.8,4.8
				c0,0,0,0,0.1,0C-42.9,890.4-43.8,886.8-45.6,879.4z"/>
		</g>
	</g>
	<g>
		<g>
			<path class="st4" d="M-274.2,481.6c-1.4,0.6-2.7,1.4-4.2,2.3c-1.5,0.9-3.1,2.1-4.8,3.4c-1.5,1.2-3,2.7-4.4,4.4
				c-1.4,1.6-2.5,3.4-3.8,5.4c-1.6,3-2.7,6.3-3.1,10.1c-0.5,4.2,0,6.8,1.4,7.5c1-0.3,1.6-0.4,2.7-0.6c0.2-0.5,0.4-1,0.6-1.5
				c0.2-0.5,0.4-1.1,0.7-1.6c0.6-0.4,1.3-0.8,2-1.3c0.7-0.5,1.3-1,1.9-1.4c-0.2,0.4-0.4,0.8-0.6,1.2c-0.7,1.4-1.3,2.8-1.9,4.1
				c8.5,4.2,12.9,6.3,21.5,10.6c-1.4,0.9-2.1,1.4-3.5,2.4c-7.8-3.6-11.9-5.4-19.6-8.8c-1,2.4-1.5,3.6-2.4,6.2
				c-1.5,1.3-2.1,1.9-3.6,3.3c1.5-4.7,2.4-6.9,4.2-11.1c-1,0.9-1.5,1.3-2.5,2.3c-1.1,0.9-1.8,1.2-2.4,0.9c-1.6-0.8-2.7-3.5-2.4-8
				c0.1-4.3,1.4-8.4,3-11.7c4.5-8.7,11.6-15,20-18.1C-274.9,481.4-274.8,481.6-274.2,481.6z"/>
			<path class="st4" d="M-264,477.7c6.9,6.9,10.3,10.4,17.3,17.3c-1.5,0.3-2.4,0.4-3.9,0.8c-4.2-4.2-6.4-6.3-10.6-10.3
				c-0.8-0.6-2.1-0.9-4.4-0.6c-2.1,0.3-3.8,1.2-4.6,2.6c-0.6,0.8-1.1,1.7-1.4,2.7c-0.3,1.1-0.1,1.7,0.3,1.9c3.8-2.3,6-2.7,6.9-1.9
				c0.8,0.6,1,1.5,1,2.6s-0.4,2.4-1.2,3.8c-0.6,0.9-1.7,1.7-2.6,2.3c-0.9,0.6-1.9,0.8-3,0.6c0.9,2.1,0.6,4.3-0.9,6.9
				c-0.8,1.2-1.5,1.9-2.5,2.4c-1,0.5-1.8,0.4-2.5,0c-0.5-0.3-0.9-0.8-1.2-1.4c-0.3-0.6-0.5-1.3-0.6-2.1s0-1.7,0-2.6
				c0.1-0.9,0.3-1.8,0.8-2.7c-2.5,0.6-4.6,1.9-5.9,4.3c-1.4,2.4-2,3.8-2.3,4.2c-0.6,0.4-1.3,0.9-2,1.4c-0.7,0.5-1.3,1-2,1.5
				c1.4-3.7,2.9-6.5,4.1-8.4c1.8-2.9,3-3.8,4.2-4.6c1.7-1.2,3.3-1.5,4.5-1.1c-1.2-3.9-0.6-7.7,2.1-11.1c0.9-1.2,2.7-2.3,5.4-2.8
				c2.5-0.6,4.2-0.8,5.3-0.4l0.1-0.2c-3.1-2.7-4.6-3.9-8-6.6c1.1-0.4,1.5-0.6,2.6-0.9c0.3,0.2,0.9,0.4,1.5,0.5
				c1.4,0.1,2.5-0.6,2.8-0.8c0.7-0.4,1.6-0.9,2.7-1.3c0.8-0.3,1.5-0.4,2.2-0.5C-261.3,474.9-262.2,475.8-264,477.7z"/>
			<path class="st4" d="M-218.1,445.7c-6.3,2.4-9.4,3.9-15.4,7.2c0.8,1.3,1.1,2.1,1.8,3.4c0.4-0.4,1.2-0.8,2.3-1.4
				c2.4-1.3,4.9-1.8,7.2-1.5s3.9,1.4,4.5,2.9c0.4,1.2,0.4,2.3,0,3.3c-0.4,0.9-1.2,1.9-2.1,2.4c-1.1,0.6-2.3,0.8-3.4,0.9
				c-1.1,0.1-1.9-0.2-2.4-0.8c-0.4-0.6-0.3-1.4,0-1.9c0.3-0.8,0.9-1.2,1.6-1.5c1.4-0.6,2.7-0.9,4.2-0.3c0.1-0.6,0.1-1.1,0-1.5
				c-0.3-0.8-1.5-1.2-3.3-0.9c-1.4,0.2-2.7,0.8-4.2,1.4c-1.1,0.6-1.9,1.2-2.6,1.8c3.1,6.1,4.8,9.1,7.9,15.3
				c-0.8-0.2-1.1-0.3-1.8-0.4l0,0c-1.2-0.9-2.1-1.5-3-2.1c-0.8-0.6-1.3-0.9-1.8-1.1l0,0c-2-0.8-4.2-0.9-6.6-0.1
				c0.1,1.6-0.6,3.1-2.4,4.5c-0.9,0.8-2,1.1-2.9,1.1c-1.1,0-1.8-0.3-2.3-0.9c-0.6-0.8-0.6-1.8,0-3s1.6-2.3,3-3
				c0-0.4-0.1-0.9-0.4-1.3c-0.4-0.8-1.4-1.2-2.6-1.2s-2.4,0.4-3.4,1.2c-0.3,0.1-0.5,0.4-0.6,0.8s-0.6,0.8-0.5,0.9
				c0,0.4,0.6,1.5,0.3,2.6s-0.9,1.9-1.8,2.9c-1,0.9-2.1,1.5-3.1,1.6c-1.2,0.3-2.1-0.1-2.9-0.9c-0.8-0.9-0.4-2.6,0.8-4.4
				c0.5-0.6,0.9-1.1,1.4-1.5c0-0.1,0-0.1-0.1-0.3c-0.1-0.1-0.3-0.1-0.6-0.3c-0.3,0-0.8,0-1,0c-0.5,0-0.8,0.2-1.2,0.2
				c-0.5,0.1-0.8,0.1-0.9,0.3c-1.6,1.5-2.5,2.3-4,3.9c-1.8,0.4-2.7,0.6-4.4,1.2c12.1-12.8,26.8-22.9,43.2-29.8
				C-220.7,445.1-219.8,445.3-218.1,445.7z M-228.5,469c-1.8-3.3-2.7-4.9-4.5-8.3c-2.4,1.2-4.9,1.9-7.5,2.1
				c-2.4,0.2-4.5-0.6-5.9-1.8c-3.1,2.3-4.6,3.4-7.6,6c0.3,0,0.8,0.2,1.2,0.3c0.4,0.2,1,0.3,1.8,0.6c0.5-0.3,0.9-0.4,1.2-0.6
				c0.3-0.1,0.6-0.3,0.9-0.4c1.2-0.6,2.4-1.1,3.8-1.2s2.6-0.4,3.8-0.3c1.2,0.2,2.4,0.4,3.3,0.9c0.9,0.4,1.6,1.1,2.3,1.8
				C-232.8,467.3-230.4,467.8-228.5,469C-228.6,469-228.6,469-228.5,469z M-234.6,458.2c-0.8-1.5-1.2-2.1-1.9-3.6
				c-2.6,1.5-3.8,2.3-6.1,3.8c-0.5,0.3-0.6,0.8-0.2,1.5c1.2,1.8,3.3,1.5,6.8-0.6c0.3-0.2,0.4-0.3,0.8-0.4
				C-235.2,458.6-234.9,458.5-234.6,458.2z"/>
			<path class="st4" d="M-211.1,443.5c2.9,9.3,4.4,14.1,7.4,23.4c-1.4-0.6-2.1-0.8-3.4-1.4c-2.3-6.6-3.3-9.9-5.6-16.5
				c-0.3-0.8-0.6-1.2-1.2-1.6c-0.6-0.4-1.4-0.8-2.1-0.8c-0.4-0.1-0.9-0.1-1.3-0.1c-0.6,0-0.9,0-1.5,0.1c-0.4,0-0.9,0-1.4,0
				c-0.1,0-0.8-0.1-1.2-0.7c-0.2-0.3-0.2-0.5-0.3-0.7c1-0.3,1.7-0.5,2.3-0.7c0.3-0.1,0.6-0.2,1.1-0.3c0.4-0.1,0.9-0.2,1.4-0.1
				c0.5,0,0.9,0.2,1.1,0.2c0.9,0.3,1.8,0.9,2.7,1.7c-0.2-0.4-0.3-1.1-0.6-1.7c-0.3-0.6-0.6-1.3-1.1-2.3c-0.4-0.8-0.8-1.6-0.9-2.3
				c-0.3-0.6-0.4-1.2-0.6-1.6c0.6,0.1,0.9,0.1,1.5,0.3c0.9,1.5,2.1,2.4,3.3,2.7c0.3-0.1,0.6-0.2,0.9-0.3c0.7-0.2,1.3-0.5,1.9-0.8
				c0.5,0.2,1.1,0.4,1.8,0.6c1,0.3,2,0.5,2.9,0.6c-1.5,0.4-2.9,0.9-4.4,1.4C-209.4,442.9-210.2,443.2-211.1,443.5z"/>
			<path class="st4" d="M-170.7,437.8c-7.7,0-11.4,0.3-19.1,1.4c0.3,0.3,0.8,0.4,1.1,0.8c0.4,0.3,0.8,0.4,1.1,0.6
				c3.8,0.3,6.1,1.1,7.3,1.9c2,1.1,3,2.7,3,4.5s-0.9,3.6-3,4.9c-1.5,1.1-3.8,2.1-6.9,3.2c2.3,0.6,4.6,1.6,7.2,3
				c2.4,1.3,5.1,3,7.7,5.1c0.3,0.9,0.4,1.5,0.7,2.4c-1.3-1.2-2.8-2.4-4.6-3.4c-1.8-1.1-3.8-1.9-6-2.7c-2.1-0.8-4.3-1.2-6.8-1.5
				c-2.4-0.3-4.6-0.4-7.1-0.3c-1.9-1.9-3-3-5.1-4.8c3,0.3,6.2,0.3,9.5-0.2c2.5-0.3,4.6-0.9,6.4-1.8c2.6-1.3,3.8-2.7,3.4-4.2
				c0-0.4-0.2-1.1-0.4-1.5c-0.3-0.4-0.6-0.9-1.1-1.2c-0.4-0.3-1.1-0.6-1.7-0.8c-0.6-0.1-1.2-0.1-1.9-0.1c-0.3,0-0.6,0.1-0.9,0.1
				c-0.3,0.2-0.8,0.2-0.9,0.3c-0.1,0.3-0.4,2.3-1.6,3.3c-1.2,1.2-2.7,1.8-4.2,2.1c-1.1,0.1-1.9,0.1-2.9,0c-0.9-0.3-1.5-0.8-1.6-1.4
				c-0.3-1.3,0.3-2.7,1.6-4.1c1.4-1.3,3.2-2.3,5.4-2.7c0-0.4-0.9-0.9-2.7-1.5c-2.4,0.4-4.9,0.9-7.4,1.5c-0.7,0.2-1.3,0.3-2,0.5
				c-0.4,0.1-1.6,0.5-3,0c-0.8-0.3-1.4-0.7-1.7-1.1c2.9-0.9,6.2-1.8,9.7-2.6c4.8-1.1,9.2-1.7,13.2-2.1c0.4,0,1.1-0.2,1.5-0.3
				c0.6-0.2,1.1-0.3,1.5-0.4c1.4-0.4,1.9-0.9,1.9-1.5c0-0.6-0.9-0.9-2.4-1.1c-0.4,0-1.1-0.2-1.7-0.2c-0.6,0-1.2,0-1.8,0.2
				c-0.6,0-1.3,0.1-2.3,0.3c-0.9,0.1-1.9,0.3-3.1,0.6c-1.2,0.3-2.3,0.4-3.2,0.6c-0.9,0.1-1.6,0.3-2.3,0.4c-2.7,0.6-5.4,0.8-7.9,0.4
				c-2.9-0.3-4.6-1.2-5.1-2.7c-0.1-0.3,0-0.9,0.5-1.8c0.4-0.9,0.9-1.4,1.5-1.4c0.1,0,0.3,0,0.4-0.1c0.1,0,0.3-0.2,0.6-0.2
				c-1,0.8-1.3,1.5-1.2,2.4c0.2,0.8,1.1,1.2,2.6,1.3c1.2,0.2,2.4,0,3.9-0.3c0.6-0.1,1.7-0.4,3.3-0.8c1.7-0.4,3.9-1.1,6.5-1.5
				c4.6-0.8,8.4-0.4,10.9,0.4c2.6,0.9,3.6,2.6,3.6,4.7c1.2,0,1.8-0.2,3.2-0.2C-172.8,436.4-172.1,436.9-170.7,437.8z"/>
			<path class="st4" d="M-106.4,454.7c-2.4-1.4-3.6-2.1-6-3.3c-4.3,8.8-6.6,13.2-10.9,22.1c-0.3-0.3-0.4-0.6-0.8-0.9l0,0
				c0.6-4.3-0.5-8.1-3.3-11.3c-1.2,0.6-2.5,0.9-4,0.9s-3.2-0.3-4.9-0.9c-1.1-0.3-2-0.8-2.9-1.5s-1.8-1.3-2.7-2.3
				c-0.9-0.9-1.7-1.8-2.6-3c-0.8-1.1-1.5-2.3-2.1-3.4c-0.8-1.5-1.3-3.1-1.6-4.9c-0.3-1.8-0.6-3.8-0.6-5.8c0.8,0.4,1.2,0.6,2,1.1
				c0.1,1.9,0.6,3.9,1.3,5.6c0.6,1.8,1.5,3.3,2.4,4.6c0.9,1.4,2.1,2.6,3.3,3.6c1.2,1.1,2.6,1.8,4.1,2.3c3.6,1.2,6.3,1.3,8,0.3
				c1.2-0.8,2.1-1.7,2.4-2.7c0.2-0.3,0.3-0.8,0.3-1.2c0-0.8-0.2-1.5-0.4-2.3c-0.3-0.8-0.6-1.4-1.1-1.8c-0.6-0.8-1.2-1.2-1.8-1.5
				c-0.6-0.3-1.4-0.4-1.9-0.6c0.4,0.9,0.6,1.7,0.4,2.1c-0.2,0.4-0.6,0.9-1.1,1.2c-0.6,0.3-1.2,0.4-2.1,0.6c-1.2,0.2-2.7,0-4.1-0.6
				c-1.4-0.6-2.4-1.4-3-2.4c-0.3-0.6-0.3-1.2-0.2-1.8c0.2-0.6,0.6-1.2,1.2-1.6c0.6-0.4,1.3-0.8,2.3-0.9c2.3-0.3,4.2-0.1,6.1,0.4
				c0.9,0.3,1.8,0.8,2.7,1.2c1.2,0.8,2.3,1.7,3.2,2.7c0.9,1.1,1.7,2.3,2.1,3.4c0.6,1.7,0.5,3.2-0.3,4.8c-0.5,1.1-1.2,2.1-2.1,3
				c1.2,1.7,1.7,2.6,2.7,4.4c2.7-5.9,4-8.7,6.8-14.6c-13.1-6.3-19.9-8.4-34.1-10.8c-1.2-1.2-1.9-1.8-3.3-2.9
				c14.9,1.8,31.5,7.4,44.4,14.9C-107.6,452.5-107.1,453.2-106.4,454.7z M-101,458.2c-5.3,8.3-7.8,12.4-12.9,20.7
				c-0.4-1.5-0.8-2.1-1.2-3.6c3.4-6,5.3-9,8.8-15c0.3-0.6,0.5-1.3,0.5-2.1s-0.3-1.5-0.8-2.3c-0.5-0.8-1.1-1.5-1.8-2.1
				c-0.8-0.8-1.7-1.3-2.6-1.8c-0.9-1.5-1.3-2.3-2.3-3.8c1.5,0.8,2.3,1.2,3.8,1.9c1.9,1.1,3.3,2.3,4.2,3.4c0.8,1.2,1.1,2.6,0.9,4.2
				c0.3-0.4,0.4-0.9,0.9-1.5c0.3-0.6,0.6-1.3,1.1-2.3c0.3-0.9,0.8-1.5,1.1-2.3c0.3-0.6,0.6-1.1,0.8-1.5c0.3,0.6,0.4,0.8,0.8,1.4
				c-0.5,1.6-0.5,3.1,0.1,4.3c1.1,0.8,1.7,1.2,2.9,1.9c0.8,1.7,1,2.4,1.6,4.1C-97.4,460.6-98.6,459.7-101,458.2z"/>
			<path class="st4" d="M-78.1,477.8c-2.3-1.8-4.5-3.1-6.6-3.9c-2.1-0.8-4.1-1.1-6-1.1c-1.6,0.1-3.3,0.6-4.8,1.3
				c-1.3,0.8-2.7,1.9-3.9,3.4c-1.1,1.4-1.3,2.9-1.3,4.8c0.3,3,1.2,4.9,2.8,6c-0.3-0.8-0.4-1.3-0.3-1.9c0-0.6,0.3-1.1,0.6-1.3
				c0.4-0.6,1.2-0.8,2.1-0.4c0.9,0.1,1.8,0.8,2.6,1.3c0.8,0.8,1.2,1.7,1.3,2.7c0.2,1.1-0.1,1.9-0.9,2.6c-0.4,0.4-0.9,0.6-1.4,0.8
				c-0.6,0.2-1,0.2-1.6,0c-0.6-0.1-1.2-0.4-1.8-0.8c-0.6-0.3-1.2-0.8-1.8-1.3c-2.7-2.6-3.9-5.4-3.8-8.9c0-2.8,0.9-5.4,2.6-7.8
				c2.4-3.3,6.8-5.1,13.2-4.5c-1.7-1.5-3.5-3.1-5.5-4.7c-1.5-1.2-2.9-2.3-4.4-3.3c0-0.4,0.1-0.9,0.1-1.3c0-0.5,0-1,0-1.5
				c2.8,1.9,5.9,4.3,9.1,7.1c3.6,3.2,6.6,6.4,9.1,9.3c0,0.4,0.1,0.8,0.1,1.2C-78.3,476.4-78.2,477.2-78.1,477.8z"/>
			<path class="st4" d="M-58.4,505.6c-8.4,4.8-12.6,7.4-21,12.1c0.1-1.6,0.1-2.5,0.1-4.2c4.5-2.9,6.8-4.2,11.1-6.9
				c0.8-0.4,1.1-1.2,1.1-2.4c0-1.2-0.3-2.4-1.1-3.6c-1.2-1.9-2.4-2.4-3.8-1.3c-0.3,0.1-0.6,0.6-1.1,1.1c-0.4-0.4-0.8-0.6-1.2-1.1
				c0.8-1.1,1.1-2.6,0.8-4.4c-0.3-1.8-1.1-3.6-2.4-5.3c-0.6-0.8-1.2-1.3-1.9-1.8c-0.8-0.4-1.3-0.9-2.1-1.1c-0.8-0.3-1.4-0.3-2-0.1
				c-0.6,0.1-1.2,0.3-1.6,0.8c-1.4,1.3-1.1,3.3,0.9,6.1c0.2-1.1,0.3-1.8,0.8-2.1c0.5-0.4,1.2-0.4,2.1-0.2c0.9,0.3,1.6,0.9,2.4,1.8
				c2,2.7,2,4.9,0.3,6.2c-0.8,0.4-1.6,0.6-2.7,0.1s-2.1-1.3-3.3-2.7c-0.9-1.2-1.6-2.4-2.3-3.4c-0.6-1.2-0.9-2.3-1.1-3.3
				c-0.2-1.1-0.1-2.1,0.2-3c0.3-0.9,0.8-1.8,1.3-2.6c1.2-1.2,2.7-1.6,4.5-1.5c2.1,0.2,4.1,1.2,5.7,3.3c2.1,2.6,3.1,5.7,3,9
				c0.6-0.4,1.3-0.4,2.5,0.2c1.1,0.4,2,1.2,2.6,2.1c1.8,2.9,1.9,5.7,0.6,8.4c2.1-1.4,3.1-1.9,5.4-3.3c-6.6-11.7-10.6-16.9-19.3-26.1
				c-0.4-1.8-0.8-2.7-1.2-4.5c10.4,9.9,20.1,23.4,26.1,36.3c0,1.9,0,3-0.1,4.9C-56.3,509.8-57,508.4-58.4,505.6z"/>
			<path class="st4" d="M-52,520.1c-8.8,3.8-13.2,5.7-21.9,9.5c0.3-1.7,0.4-2.4,0.8-4.2c6.1-2.8,9.1-4.3,15.3-7.2
				c0.6-0.3,1-0.8,1.5-1.5c0.3-0.8,0.4-1.5,0.4-2.6c0-1.3-0.3-2.6-0.4-3.1c-0.2-1-0.6-2.3-1.3-3.8c0-1.5-0.1-2.9-0.1-4.4
				c0.2,0.4,0.6,0.9,1,1.5c0.2,0.4,0.9,1.5,1.5,2.8c1.1,2.3,1.8,3.8,1.8,5.8c0,1.7-0.5,3.2-1.4,4.5c0.4-0.2,0.9-0.4,1.5-0.8
				c0.6-0.3,1.3-0.8,2.1-1.3c0.8-0.5,1.5-0.9,2.1-1.2s1-0.6,1.5-0.8c0,0.8,0,1.1,0,1.8c-1.4,1.2-2,2.5-2.1,4
				c0.6,1.5,0.9,2.3,1.4,3.8c-0.3,2-0.5,3-0.8,5C-50.2,524.6-50.8,523.1-52,520.1z"/>
		</g>
	</g>
</g>
</svg>
